<svg width="86" height="76" viewBox="0 0 86 76" xmlns="http://www.w3.org/2000/svg">
    <g fill="#FFF" fill-rule="nonzero">
        <path d="M78.833 0H7.167C3.21 0 0 3.191 0 7.125v47.5c0 3.934 3.21 7.125 7.167 7.125h28.666l-2.389 7.125h-10.75a3.564 3.564 0 0 0-3.583 3.563A3.564 3.564 0 0 0 22.694 76h40.612a3.564 3.564 0 0 0 3.583-3.563 3.564 3.564 0 0 0-3.583-3.562h-10.75l-2.39-7.125h28.667c3.957 0 7.167-3.191 7.167-7.125v-47.5C86 3.191 82.79 0 78.833 0zm-2.389 52.25H9.556V9.5h66.888v42.75z"/>
        <path d="m53.277 20.785 2.658-1.751c3.337 3.414 5.112 8.12 4.501 12.979l-3.195-.564c.464-4.029-1.093-7.908-3.964-10.664zm-22.515 6.227-3.189-.562c1.087-4.774 4.36-8.59 8.668-10.657l1.9 2.555c-3.652 1.606-6.438 4.72-7.379 8.664zm3.117 1.52c.816-4.625 4.828-7.91 9.501-8.14l.181-1.026c.22-1.249 1.444-2.075 2.743-1.846 1.3.23 2.166 1.424 1.946 2.673l-.18 1.026c4.311 1.815 6.958 6.275 6.143 10.899l-1.46 8.284 2.597 3.561-.266 1.506-26.59-4.688.266-1.506 3.658-2.459 1.461-8.284zM41.286 47.3a2.54 2.54 0 0 1-.582-.164 2.972 2.972 0 0 1-1.816-2.119 2.984 2.984 0 0 1-.035-1.193l5.908 1.042a3.01 3.01 0 0 1-3.475 2.434z"/>
    </g>
</svg>
