<?xml version="1.0" encoding="UTF-8"?>
<svg width="86px" height="76px" viewBox="0 0 86 76" version="1.1" xmlns="http://www.w3.org/2000/svg" xmlns:xlink="http://www.w3.org/1999/xlink">
    <title>alart-hover</title>
    <g id="Page-1" stroke="none" stroke-width="1" fill="none" fill-rule="evenodd">
        <g id="slope-icon" transform="translate(-142.000000, -234.000000)" fill="#10C5BF" fill-rule="nonzero">
            <g id="alart-hover" transform="translate(142.000000, 234.000000)">
                <path d="M78.8333333,0 L7.16666667,0 C3.21006944,0 0,3.19140625 0,7.125 L0,54.625 C0,58.5585938 3.21006944,61.75 7.16666667,61.75 L35.8333333,61.75 L33.4444444,68.875 L22.6944444,68.875 C20.7086806,68.875 19.1111111,70.4632812 19.1111111,72.4375 C19.1111111,74.4117188 20.7086806,76 22.6944444,76 L63.3055556,76 C65.2913194,76 66.8888889,74.4117188 66.8888889,72.4375 C66.8888889,70.4632812 65.2913194,68.875 63.3055556,68.875 L52.5555556,68.875 L50.1666667,61.75 L78.8333333,61.75 C82.7899306,61.75 86,58.5585938 86,54.625 L86,7.125 C86,3.19140625 82.7899306,0 78.8333333,0 Z M76.4444444,52.25 L9.55555556,52.25 L9.55555556,9.5 L76.4444444,9.5 L76.4444444,52.25 Z" id="Shape"></path>
                <g id="alarm-bell_icon-icons.com_68596" transform="translate(43.811160, 32.158456) scale(-1, 1) rotate(-10.000000) translate(-43.811160, -32.158456) translate(26.811160, 16.158456)">
                    <path d="M9.65270364,3.15594485 L7.33901845,0.969615506 C3.46028457,3.75221095 0.894704148,8.0794532 0.652703645,12.9696155 L3.89752813,12.9696155 C4.13952864,8.92115098 6.34708801,5.37159676 9.65270364,3.15594485 Z M30.7444663,13.1979408 L33.9826824,13.1979408 C33.7411748,8.30777845 31.1808194,3.9805362 27.2972706,1.19794076 L24.9826824,3.3842701 C28.2998952,5.59992201 30.5029587,9.14947623 30.7444663,13.1979408 Z M27.4108208,14.1537642 C27.4108208,9.45745274 24.0295511,5.52578618 19.4676773,4.48747441 L19.4676773,3.44519823 C19.4676773,2.17737711 18.4061977,1.15108058 17.0869635,1.15108058 C15.7677294,1.15108058 14.7062497,2.17737711 14.7062497,3.44519823 L14.7062497,4.48747441 C10.144376,5.52578618 6.76310631,9.45873355 6.76310631,14.1537642 L6.76310631,22.5655289 L3.58696355,25.6216688 L3.58696355,27.1510806 L30.5869635,27.1510806 L30.5869635,25.6216688 L27.4108208,22.5655289 C27.4108208,22.5655289 27.4108208,14.1537642 27.4108208,14.1537642 Z M16.8574661,31.3497212 C17.0681151,31.3497212 17.2617233,31.3366268 17.4592778,31.2895107 C18.4300691,31.0959045 19.2425299,30.4207939 19.6153961,29.5180554 C19.765834,29.1621739 19.8574362,28.7710151 19.8574362,28.3497212 L13.8574362,28.3497212 C13.8574362,29.9995598 15.2076709,31.3497212 16.8574661,31.3497212 Z" id="Shape"></path>
                </g>
            </g>
        </g>
    </g>
</svg>