<?xml version="1.0" encoding="UTF-8"?>
<svg width="31px" height="27px" viewBox="0 0 31 27" version="1.1" xmlns="http://www.w3.org/2000/svg" xmlns:xlink="http://www.w3.org/1999/xlink">
    <title>alart-sidebar</title>
    <g id="Page-2" stroke="none" stroke-width="1" fill="none" fill-rule="evenodd">
        <g id="Artboard" transform="translate(-579.000000, -756.000000)" fill="#757B8E" fill-rule="nonzero">
            <g id="alart-sidebar" transform="translate(579.000000, 756.000000)">
                <path d="M28.4166667,0 L2.58333333,0 C1.15711806,0 0,1.13378906 0,2.53125 L0,19.40625 C0,20.8037109 1.15711806,21.9375 2.58333333,21.9375 L12.9166667,21.9375 L12.0555556,24.46875 L8.18055556,24.46875 C7.46475694,24.46875 6.88888889,25.0330078 6.88888889,25.734375 C6.88888889,26.4357422 7.46475694,27 8.18055556,27 L22.8194444,27 C23.5352431,27 24.1111111,26.4357422 24.1111111,25.734375 C24.1111111,25.0330078 23.5352431,24.46875 22.8194444,24.46875 L18.9444444,24.46875 L18.0833333,21.9375 L28.4166667,21.9375 C29.8428819,21.9375 31,20.8037109 31,19.40625 L31,2.53125 C31,1.13378906 29.8428819,0 28.4166667,0 Z M27.5555556,18.5625 L3.44444444,18.5625 L3.44444444,3.375 L27.5555556,3.375 L27.5555556,18.5625 Z" id="Shape"></path>
                <g id="alarm-bell_icon-icons.com_68596" transform="translate(15.371118, 11.671093) scale(-1, 1) rotate(-10.000000) translate(-15.371118, -11.671093) translate(8.871118, 5.671093)">
                    <path d="M3.47946294,1.12119093 L2.64546014,0.344468667 C1.24731188,1.33302231 0.322509635,2.87033206 0.235276895,4.60762656 L1.40492293,4.60762656 C1.49215567,3.16935627 2.28790382,1.90833043 3.47946294,1.12119093 Z M11.0823076,4.68874211 L12.2495716,4.68874211 C12.1625165,2.95144761 11.2395977,1.41413786 9.83971381,0.425584217 L9.00538553,1.20230648 C10.201125,1.98944598 10.9952525,3.25047182 11.0823076,4.68874211 Z M9.8806447,5.02831096 C9.8806447,3.35988453 8.66181492,1.96310825 7.01741858,1.59423433 L7.01741858,1.223952 C7.01741858,0.773541868 6.63479218,0.408936522 6.1592543,0.408936522 C5.68371642,0.408936522 5.30109002,0.773541868 5.30109002,1.223952 L5.30109002,1.59423433 C3.65669368,1.96310825 2.4378639,3.36033955 2.4378639,5.02831096 L2.4378639,8.01670105 L1.29297523,9.10243497 L1.29297523,9.64577863 L11.0255334,9.64577863 L11.0255334,9.10243497 L9.8806447,8.01670105 C9.8806447,8.01670105 9.8806447,5.02831096 9.8806447,5.02831096 Z M6.07652847,11.137401 C6.1524601,11.137401 6.2222491,11.132749 6.2934606,11.1160104 C6.64339701,11.0472292 6.93626078,10.8073873 7.07066602,10.4866776 C7.12489366,10.360246 7.15791304,10.2212817 7.15791304,10.0716115 L4.99512234,10.0716115 C4.99512234,10.6577383 5.48183484,11.137401 6.07652847,11.137401 Z" id="Shape"></path>
                </g>
            </g>
        </g>
    </g>
</svg>