<?xml version="1.0" encoding="utf-8"?>
<!-- Generator: Adobe Illustrator 26.0.1, SVG Export Plug-In . SVG Version: 6.00 Build 0)  -->
<svg version="1.1" id="圖層_1" xmlns="http://www.w3.org/2000/svg" xmlns:xlink="http://www.w3.org/1999/xlink" x="0px" y="0px"
	 viewBox="0 0 30 22.5" style="enable-background:new 0 0 30 22.5;" xml:space="preserve">
<style type="text/css">
	.st0{filter:url(#Adobe_OpacityMaskFilter);}
	.st1{fill-rule:evenodd;clip-rule:evenodd;fill:#FFFFFF;}
	.st2{mask:url(#mask-2_00000134250535915081818190000016191321927295600827_);fill-rule:evenodd;clip-rule:evenodd;fill:#757B8E;}
</style>
<g id="Page-2">
	<g id="Artboard" transform="translate(-580.000000, -931.000000)">
		<g id="bridge-sidebar" transform="translate(580.000000, 931.000000)">
			<g id="Clip-2">
			</g>
			<defs>
				<filter id="Adobe_OpacityMaskFilter" filterUnits="userSpaceOnUse" x="0" y="0" width="30" height="22.5">
					<feColorMatrix  type="matrix" values="1 0 0 0 0  0 1 0 0 0  0 0 1 0 0  0 0 0 1 0"/>
				</filter>
			</defs>
			
				<mask maskUnits="userSpaceOnUse" x="0" y="0" width="30" height="22.5" id="mask-2_00000134250535915081818190000016191321927295600827_">
				<g class="st0">
					<polygon id="path-1_00000125599384578139465540000002946815129590206116_" class="st1" points="0,0 30,0 30,22.5 0,22.5 					
						"/>
				</g>
			</mask>
			<path id="Fill-1" class="st2" d="M22.3,5.5H26V2.4h-3.7V5.5z M16,5.5h4.5V2.4H16V5.5z M14,5.5c-0.1,0-0.2,0-0.3,0
				c-1.3,0-2.5,0-3.8,0V2.4H14V5.5z M4.3,5.5C4.1,5.5,4,5.4,4,5.1c0-0.9,0-1.8,0-2.7h4.1v3.1C6.9,5.5,5.6,5.5,4.3,5.5L4.3,5.5z
				 M30,2.3V0h-0.4C19.9,0,10.1,0,0.4,0C0.3,0,0.2,0,0,0v2.4h2v3.1H0v16.9h4.3c0-0.2,0-0.3,0-0.4c0-1.4,0-2.8,0-4.2
				c0-3.3,2.4-5.6,5-5c2,0.4,3.4,2.5,3.4,5c0,1.4,0,2.8,0,4.2c0,0.1,0,0.2,0,0.4h4.3c0-0.1,0-0.3,0-0.4c0-1.4,0-2.8,0-4.3
				c0-3.4,2.6-5.7,5.3-4.9c1.9,0.6,3.1,2.6,3.2,4.9c0,1.4,0,2.8,0,4.2c0,0.1,0,0.2,0,0.4H30v-17h-1.9V2.3H30z"/>
		</g>
	</g>
</g>
</svg>
