<?xml version="1.0" encoding="UTF-8"?>
<svg width="104px" height="66px" viewBox="0 0 104 66" version="1.1" xmlns="http://www.w3.org/2000/svg" xmlns:xlink="http://www.w3.org/1999/xlink">
    <title>bridge-hover</title>
    <defs>
        <polygon id="path-1" points="0 0 103.315505 0 103.315505 65.0489331 0 65.0489331"></polygon>
    </defs>
    <g id="Page-1" stroke="none" stroke-width="1" fill="none" fill-rule="evenodd">
        <g id="slope-icon" transform="translate(-607.000000, -438.000000)">
            <g id="bridge-hover" transform="translate(607.000000, 438.000000)">
                <mask id="mask-2" fill="white">
                    <use xlink:href="#path-1"></use>
                </mask>
                <g id="Clip-2"></g>
                <path d="M76.8147937,15.8042674 L89.6543385,15.8042674 L89.6543385,6.89957326 L76.8147937,6.89957326 L76.8147937,15.8042674 Z M55.1394026,15.8042674 L70.5547653,15.8042674 L70.5547653,6.89957326 L55.1394026,6.89957326 L55.1394026,15.8042674 Z M48.2341394,15.8423898 C47.8671408,15.8611664 47.514936,15.8955903 47.1624467,15.8955903 C42.8216216,15.8967283 38.4807966,15.8955903 34.1399716,15.8958748 L34.1399716,6.89758179 L48.2341394,6.89758179 L48.2341394,15.8423898 Z M14.7928876,15.9186572 C13.8571835,15.9214794 13.599431,15.658037 13.6210526,14.7371266 C13.6807966,12.1536273 13.6418208,9.56785206 13.6418208,6.89758179 L27.8799431,6.89758179 L27.8799431,15.8981508 C23.5174964,15.9007112 19.1553343,15.9055477 14.7928876,15.9186572 L14.7928876,15.9186572 Z M103.315505,6.8002845 L103.315505,-3.16105579e-05 L101.961024,-3.16105579e-05 C68.3775249,-3.16105579e-05 34.7940256,-3.16105579e-05 1.21052632,0.000853485064 C0.806827881,0.000853485064 0.40341394,0.0153627312 0,0.0233285917 L0,6.88933144 L6.77439545,6.88933144 L6.77439545,15.9766714 L0,15.9766714 L0,65.0489331 L14.9749644,65.0489331 C14.9749644,64.572404 14.9749644,64.2079659 14.9749644,63.8435277 C14.9752489,59.8048364 14.9385491,55.7655761 14.9832148,51.7271693 C15.08734,42.2625889 23.0904694,35.5917496 32.3752489,37.1954481 C39.1277383,38.3618777 44.1357041,44.4722617 44.1965861,51.6722617 C44.2312945,55.7445235 44.2031294,59.8173542 44.2034139,63.8896159 C44.2034139,64.2500711 44.2034139,64.6108108 44.2034139,65.0130868 L59.173542,65.0130868 C59.173542,64.5943101 59.173542,64.23101 59.173542,63.8677098 C59.174111,59.7615932 59.1274538,55.6549075 59.1846373,51.5496444 C59.3206259,41.8315789 68.2036984,35.0065434 77.5234708,37.4196302 C83.944239,39.0822191 88.3334282,44.8412518 88.3948791,51.7490754 C88.43101,55.8213371 88.401707,59.8941679 88.4019915,63.9664296 C88.4019915,64.3186344 88.4019915,64.6711238 88.4019915,65.0238976 L103.310953,65.0238976 L103.310953,15.859175 L96.6130868,15.859175 L96.6130868,6.8002845 L103.315505,6.8002845 Z" id="Fill-1" fill="#10C5BF" mask="url(#mask-2)"></path>
            </g>
        </g>
    </g>
</svg>