<svg width="104" height="66" viewBox="0 0 104 66" xmlns="http://www.w3.org/2000/svg" xmlns:xlink="http://www.w3.org/1999/xlink">
    <defs>
        <path id="a" d="M0 0h103.316v65.049H0z"/>
    </defs>
    <g fill="none" fill-rule="evenodd">
        <mask id="b" fill="#fff">
            <use xlink:href="#a"/>
        </mask>
        <path d="M76.815 15.804h12.84V6.9h-12.84v8.904zm-21.676 0h15.416V6.9H55.139v8.904zm-6.905.038c-.367.02-.72.054-1.072.054H34.14V6.898h14.094v8.944zm-33.441.077c-.936.002-1.194-.261-1.172-1.182.06-2.583.02-5.17.02-7.84H27.88v9.001c-4.363.003-8.725.008-13.087.02zM103.316 6.8V0H1.21C.807 0 .403.016 0 .024V6.89h6.774v9.088H0v49.072h14.975v-1.205c0-4.04-.036-8.078.008-12.117.104-9.464 8.107-16.135 17.392-14.532 6.753 1.167 11.76 7.277 11.822 14.477.034 4.073.006 8.145.006 12.218v1.123h14.97v-1.145c.001-4.106-.046-8.213.012-12.318.136-9.718 9.019-16.543 18.338-14.13 6.421 1.662 10.81 7.421 10.872 14.33.036 4.071.007 8.144.007 12.216v1.058h14.909V15.859h-6.698V6.8h6.703z" fill="#FFF" mask="url(#b)"/>
    </g>
</svg>
