<?xml version="1.0" encoding="utf-8"?>
<!-- Generator: Adobe Illustrator 26.0.1, SVG Export Plug-In . SVG Version: 6.00 Build 0)  -->
<svg version="1.1" id="圖層_1" focusable="false" xmlns="http://www.w3.org/2000/svg" xmlns:xlink="http://www.w3.org/1999/xlink"
	 x="0px" y="0px" viewBox="0 0 30 26.7" style="enable-background:new 0 0 30 26.7;" xml:space="preserve">
<style type="text/css">
	.st0{opacity:0.8;fill:#FFFFFF;}
</style>
<path class="st0" d="M14.8,0.3c-3.6,0-6.5,2.9-6.5,6.5c0,2.9,4.3,8.2,5.9,10.1c0.3,0.4,0.9,0.4,1.3,0c1.6-1.9,5.9-7.2,5.9-10.1
	C21.4,3.2,18.4,0.3,14.8,0.3z M14.8,9c-1.2,0-2.2-1-2.2-2.2s1-2.2,2.2-2.2s2.2,1,2.2,2.2S16,9,14.8,9z M1,11.4c-0.6,0.3-1,0.9-1,1.5
	v13c0,0.6,0.6,1,1.1,0.8l7.1-3.3V11.4C7.8,10.6,7.4,9.7,7.1,9L1,11.4z M14.8,18.9c-0.7,0-1.4-0.3-1.9-0.9c-1-1.2-2.1-2.6-3.1-4v9.4
	l9.9,3.3V14c-1,1.4-2.1,2.8-3.1,4C16.3,18.6,15.6,18.9,14.8,18.9z M28.6,8.6l-7.1,3.3v14.9l7.2-2.9c0.6-0.3,1-0.9,1-1.5v-13
	C29.7,8.8,29.2,8.4,28.6,8.6L28.6,8.6z"/>
</svg>
