<?xml version="1.0" encoding="UTF-8"?>
<svg width="82px" height="79px" viewBox="0 0 82 79" version="1.1" xmlns="http://www.w3.org/2000/svg" xmlns:xlink="http://www.w3.org/1999/xlink">
    <title>slope-hover</title>
    <g id="Page-1" stroke="none" stroke-width="1" fill="none" fill-rule="evenodd">
        <g id="slope-icon" transform="translate(-624.000000, -231.000000)" fill="#10C5BF" fill-rule="nonzero">
            <g id="slope-hover" transform="translate(665.000000, 270.500000) scale(-1, 1) translate(-665.000000, -270.500000) translate(624.000000, 231.000000)">
                <path d="M1.32011403,4.97379915e-14 C0.591614818,0.00137463678 0.00140973556,0.569999724 0,1.27184532 L0,6.36662105 C0,6.36747671 0,6.36833237 0,6.36918803 L0,77.730645 C0.00290174134,78.4314889 0.592650328,78.9985616 1.32011403,79 L75.3890517,79 L80.6824513,79 C81.4089436,78.997276 81.9971791,78.4305572 82,77.730645 C81.998597,77.0297606 81.4099487,76.4615315 80.6824513,76.4587997 L76.3423236,76.4587997 C74.6130983,71.4995761 71.8440815,67.9228847 68.6437664,64.8232694 C65.9610545,62.2249441 62.9941709,59.9107879 60.007439,57.2694752 L35.7078815,57.2886318 C34.9814104,57.2859002 34.3931901,56.7192069 34.3903475,56.0193152 C34.3889779,55.6813488 34.5270197,55.3567004 34.7741053,55.1167892 C35.0211909,54.876878 35.3570803,54.7413562 35.7078815,54.7400371 L57.2896874,54.7208805 C55.3671369,52.6284045 53.7374435,48.8486914 52.1306208,44.7553464 C50.4293805,40.421586 48.704999,35.7720864 46.0182705,32.3208707 C45.7039028,31.9172794 45.3289402,31.5941841 44.9306576,31.3054174 L14.5497626,31.3437306 C14.1989608,31.3450543 13.8619813,31.2120666 13.6129559,30.9740234 C13.3639305,30.7359802 13.2232583,30.4123809 13.2218857,30.074414 C13.2205197,29.7347274 13.3599837,29.4085743 13.6093073,29.1683829 C13.8586309,28.9281915 14.197176,28.7938438 14.5497626,28.7951742 L30.6185597,28.7760176 C28.9183012,27.8705232 27.4915645,26.0074284 26.1208445,23.5549998 C24.6963038,21.0062902 23.334433,17.9129199 21.5404607,14.9583967 C19.746488,12.0038352 17.4951503,9.16126321 14.2164934,7.2452962 C11.2419012,5.50706418 7.44295801,4.60375363 2.63766074,4.97044936 L2.63766074,1.27199857 C2.63625774,0.571114844 2.0476107,0.00288604289 1.32011403,4.97379915e-14 L1.32011403,4.97379915e-14 Z" id="path359"></path>
            </g>
        </g>
    </g>
</svg>