<svg width="82" height="79" viewBox="0 0 82 79" xmlns="http://www.w3.org/2000/svg">
    <path d="M80.68 0c.728.001 1.319.57 1.32 1.272V77.73c-.003.7-.593 1.268-1.32 1.269H1.318C.59 78.997.003 78.43 0 77.73c.001-.7.59-1.268 1.318-1.271h4.34c1.729-4.96 4.498-8.536 7.698-11.636 2.683-2.598 5.65-4.912 8.637-7.554l24.3.02c.726-.003 1.314-.57 1.317-1.27a1.25 1.25 0 0 0-.384-.902 1.348 1.348 0 0 0-.934-.377l-21.582-.02c1.923-2.092 3.553-5.871 5.16-9.965 1.7-4.333 3.425-8.983 6.112-12.434.314-.404.69-.727 1.087-1.016l30.381.039c.351.001.688-.132.937-.37.25-.238.39-.562.391-.9a1.251 1.251 0 0 0-.387-.906 1.349 1.349 0 0 0-.94-.373l-16.07-.019c1.7-.905 3.127-2.769 4.498-5.221 1.425-2.549 2.787-5.642 4.58-8.597 1.795-2.954 4.046-5.797 7.325-7.713 2.974-1.738 6.773-2.641 11.578-2.275V1.272c.002-.7.59-1.27 1.318-1.272z" fill="#FFF" fill-rule="nonzero"/>
</svg>
