<?xml version="1.0" encoding="utf-8"?>
<!-- Generator: Adobe Illustrator 26.0.1, SVG Export Plug-In . SVG Version: 6.00 Build 0)  -->
<svg version="1.1" id="圖層_1" xmlns="http://www.w3.org/2000/svg" xmlns:xlink="http://www.w3.org/1999/xlink" x="0px" y="0px"
	 viewBox="0 0 30 28" style="enable-background:new 0 0 30 28;" xml:space="preserve">
<style type="text/css">
	.st0{opacity:0.8;}
	.st1{fill:#FFFFFF;}
</style>
<g id="Page-2">
	<g id="Artboard" transform="translate(-582.000000, -692.000000)" class="st0">
		
			<g id="slope-sidebar-hover" transform="translate(593.500000, 706.000000) scale(-1, 1) translate(-593.500000, -706.000000) translate(582.000000, 692.000000)">
			<path id="path359" class="st1" d="M-3.1,0c-0.2,0-0.4,0.2-0.4,0.5v1.8c0,0,0,0,0,0v25.3c0,0.2,0.2,0.4,0.4,0.4h20.8h1.5
				c0.2,0,0.4-0.2,0.4-0.4c0-0.2-0.2-0.4-0.4-0.5h-1.2c-0.5-1.8-1.3-3-2.2-4.1c-0.8-0.9-1.6-1.7-2.4-2.7l-6.8,0
				c-0.2,0-0.4-0.2-0.4-0.4c0-0.1,0-0.2,0.1-0.3s0.2-0.1,0.3-0.1l6.1,0c-0.5-0.7-1-2.1-1.4-3.5c-0.5-1.5-1-3.2-1.7-4.4
				c-0.1-0.1-0.2-0.3-0.3-0.4l-8.5,0c-0.1,0-0.2,0-0.3-0.1s-0.1-0.2-0.1-0.3c0-0.1,0-0.2,0.1-0.3c0.1-0.1,0.2-0.1,0.3-0.1l4.5,0
				c-0.5-0.3-0.9-1-1.3-1.9c-0.4-0.9-0.8-2-1.3-3C2,4.3,1.4,3.2,0.5,2.6C-0.3,2-1.4,1.6-2.8,1.8V0.5C-2.8,0.2-2.9,0-3.1,0L-3.1,0z"
				/>
		</g>
	</g>
</g>
</svg>
