<svg width="54" height="87" viewBox="0 0 54 87" xmlns="http://www.w3.org/2000/svg">
    <path d="M53 11.815v3.623H37.958v-3.623H53zm-6.308 7.895h-8.734v3.623h8.734V19.71zm-8.734 11.518H53v-3.623H37.958v3.623zm8.734 4.274h-8.734v3.623h8.734v-3.623zM37.958 47.02H53v-3.622H37.958v3.622zm2.345 20.641C40.303 77.773 31.487 86 20.65 86 9.816 86 1 77.773 1 67.661c0-6.553 3.688-12.508 9.704-15.803V10.283C10.704 5.164 15.167 1 20.651 1c5.485 0 9.948 4.164 9.948 9.283v41.575c6.016 3.291 9.704 9.248 9.704 15.803zm-3.882 0c0-5.56-3.311-10.587-8.643-13.113l-1.061-.504v-43.76c0-3.122-2.721-5.66-6.066-5.66-3.344 0-6.065 2.538-6.065 5.66v43.76l-1.061.504c-5.332 2.528-8.643 7.554-8.643 13.113 0 8.114 7.074 14.716 15.77 14.716 8.695 0 15.77-6.602 15.77-14.716zm-5.304.125c0 5.592-4.71 10.142-10.5 10.142s-10.5-4.55-10.5-10.142c0-4.585 3.206-8.61 7.797-9.79l.603-.155V22.928h4.2V57.84l.603.157c4.593 1.179 7.797 5.206 7.797 9.789zm-10.05-7.162c-.241-1.153-1.321-1.91-2.422-1.641-3.843.933-6.528 4.54-6.528 8.772 0 1.198.91 2.173 2.025 2.173 1.117 0 2.026-.975 2.026-2.173 0-2.151 1.416-4.058 3.37-4.532 1.087-.268 1.774-1.434 1.53-2.6z" fill="#FFF" fill-rule="nonzero" stroke="#FFF"/>
</svg>
