<?xml version="1.0" encoding="utf-8"?>
<!-- Generator: Adobe Illustrator 26.0.1, SVG Export Plug-In . SVG Version: 6.00 Build 0)  -->
<svg version="1.1" id="圖層_1" xmlns="http://www.w3.org/2000/svg" xmlns:xlink="http://www.w3.org/1999/xlink" x="0px" y="0px"
	 viewBox="0 0 30 30" style="enable-background:new 0 0 30 30;" xml:space="preserve">
<style type="text/css">
	.st0{fill:#757B8E;stroke:#757B8E;stroke-width:0.5;}
</style>
<g id="Page-2">
	<g id="Artboard" transform="translate(-587.000000, -634.000000)">
		<g id="thermometer-sidebar" transform="translate(588.000000, 635.000000)">
			<path id="Shape" class="st0" d="M22.5,4v1h-5V4H22.5z M20.5,6h-3v1h3V6z M17.5,10h5V9h-5V10z M20.5,11h-3v2h3V11z M17.5,15h5v-1
				h-5V15z M18.5,22c0,3.3-2.9,6-6.5,6s-6.5-2.7-6.5-6c0-2.2,1.2-4.1,3.2-5.2V3.1C8.7,1.4,10.2,0,12,0s3.3,1.4,3.3,3.1v13.7
				C17.3,17.8,18.5,19.8,18.5,22z M17.5,22.1c0-1.9-1.2-3.5-3-4.4l-0.4-0.2V2.9c0-1-0.9-1.9-2.1-1.9c-1.2,0-2.1,0.8-2.1,1.9v14.6
				l-0.4,0.2c-1.9,0.8-3,2.5-3,4.4C6.5,24.8,9,27,12,27S17.5,24.8,17.5,22.1z M15.5,21.7c0,1.8-1.6,3.3-3.5,3.3
				c-1.9,0-3.5-1.5-3.5-3.3c0-1.5,1.1-2.8,2.6-3.2l0.2-0.1V7h1.4v11.4l0.2,0.1C14.4,18.9,15.5,20.2,15.5,21.7z M12.5,19.6
				c-0.1-0.4-0.4-0.7-0.8-0.6c-1.3,0.3-2.2,1.7-2.2,3.2c0,0.4,0.3,0.8,0.7,0.8s0.7-0.4,0.7-0.8c0-0.8,0.5-1.5,1.1-1.6
				C12.3,20.5,12.6,20,12.5,19.6z"/>
		</g>
	</g>
</g>
</svg>
