<?xml version="1.0" encoding="UTF-8"?>
<svg width="54px" height="87px" viewBox="0 0 54 87" version="1.1" xmlns="http://www.w3.org/2000/svg" xmlns:xlink="http://www.w3.org/1999/xlink">
    <title>thermometer-hover</title>
    <g id="Page-1" stroke="none" stroke-width="1" fill="none" fill-rule="evenodd">
        <g id="slope-icon" transform="translate(-881.000000, -224.000000)" fill="#10C5BF" fill-rule="nonzero" stroke="#10C5BF">
            <g id="thermometer-hover" transform="translate(882.000000, 225.000000)">
                <path d="M52,10.8150561 L52,14.4376419 L36.9582085,14.4376419 L36.9582085,10.8150561 L52,10.8150561 Z M45.6922201,18.7101175 L36.9582085,18.7101175 L36.9582085,22.3327034 L45.6922201,22.3327034 L45.6922201,18.7101175 Z M36.9582085,30.2277648 L52,30.2277648 L52,26.6054608 L36.9582085,26.6054608 L36.9582085,30.2277648 Z M45.6922201,34.502495 L36.9582085,34.502495 L36.9582085,38.1250808 L45.6922201,38.1250808 L45.6922201,34.502495 Z M36.9582085,46.0201422 L52,46.0201422 L52,42.3975564 L36.9582085,42.3975564 L36.9582085,46.0201422 Z M39.3029015,66.6610467 C39.3029015,76.7732299 30.487351,85 19.6514507,85 C8.81555044,85 -9.62785407e-13,76.7732299 -9.62785407e-13,66.6610467 C-9.62785407e-13,60.1080387 3.68766697,54.1525008 9.70432318,50.8579599 L9.70432318,9.28277051 C9.70462518,4.16397275 14.1666086,0 19.6514507,0 C25.1362929,0 29.5985783,4.16397275 29.5985783,9.28277051 L29.5985783,50.8582417 C35.6152345,54.1491189 39.3029015,60.1063477 39.3029015,66.6610467 Z M35.4210514,66.6610467 C35.4210514,61.1006283 32.1099728,56.0742693 26.7782424,53.5477031 L25.7167282,53.0440808 L25.7167282,9.28446146 C25.7167282,6.16183419 22.9957488,3.62427679 19.6514507,3.62427679 C16.3074546,3.62427679 13.5861733,6.16183419 13.5861733,9.28446146 L13.5861733,53.0440808 L12.5246591,53.5477031 C7.19292866,56.0762421 3.88185007,61.1023193 3.88185007,66.6610467 C3.88185007,74.7753684 10.9563965,81.3774142 19.6514507,81.3774142 C28.346505,81.3774142 35.4210514,74.7753684 35.4210514,66.6610467 Z M30.1171278,66.7856989 C30.1171278,72.3783642 25.4072044,76.9283003 19.6163689,76.9283003 C13.8270512,76.9283003 9.11712779,72.3783642 9.11712779,66.7856989 C9.11712779,62.2013066 12.3231845,58.1760343 16.9142151,56.9967018 L17.5172796,56.8412821 L17.5172796,21.9283003 L21.716723,21.9283003 L21.716723,56.8395715 L22.3197875,56.9967018 C26.9128419,58.1760343 30.1171278,62.2030172 30.1171278,66.7856989 Z M20.067656,59.6237529 C19.8258159,58.4714317 18.7458408,57.7133533 17.6451017,57.9828224 C13.8017977,58.9160033 11.1171278,62.5229047 11.1171278,66.7549849 C11.1171278,67.9526544 12.0261047,68.9283003 13.1424779,68.9283003 C14.2588511,68.9283003 15.1678281,67.9529165 15.1678281,66.7549849 C15.1678281,64.6036884 16.5839365,62.6966965 18.5384446,62.2232907 C19.624771,61.9551323 20.3124276,60.7894426 20.067656,59.6237529 Z" id="Shape"></path>
            </g>
        </g>
    </g>
</svg>