<?xml version="1.0" encoding="UTF-8"?>
<svg width="108px" height="74px" viewBox="0 0 108 74" version="1.1" xmlns="http://www.w3.org/2000/svg" xmlns:xlink="http://www.w3.org/1999/xlink">
    <title>track-hover</title>
    <defs>
        <polygon id="path-1" points="0.135376271 0.298248369 15.7835932 0.298248369 15.7835932 15.7946145 0.135376271 15.7946145"></polygon>
        <polygon id="path-3" points="0.00586071364 0.243820513 29.9522487 0.243820513 29.9522487 73.6837077 0.00586071364 73.6837077"></polygon>
        <polygon id="path-5" points="0 0.320206169 15.8932138 0.320206169 15.8932138 15.7913793 0 15.7913793"></polygon>
    </defs>
    <g id="Page-1" stroke="none" stroke-width="1" fill="none" fill-rule="evenodd">
        <g id="slope-icon" transform="translate(-132.000000, -434.000000)">
            <g id="track-hover" transform="translate(132.000000, 434.000000)">
                <g id="Group-3" transform="translate(92.000000, 45.000000)">
                    <mask id="mask-2" fill="white">
                        <use xlink:href="#path-1"></use>
                    </mask>
                    <g id="Clip-2"></g>
                    <path d="M15.7836475,14.3843333 C15.1772746,15.482 14.3271051,15.8183333 13.2702915,15.7933333 C10.8721898,15.736 8.47246102,15.7983333 6.07408814,15.7473333 C5.75002034,15.7403333 5.24751186,15.4576667 5.13768136,15.14 C3.46310508,10.2916667 1.84032542,5.41666667 0.135376271,0.339 C0.750969492,0.339 1.23856271,0.339 1.72588475,0.339 C3.8208,0.339 5.91951186,0.434666667 8.00927458,0.305666667 C9.42866441,0.217666667 10.2370712,0.912333333 10.8990373,2.40366667 C12.4673085,5.93766667 14.148122,9.39566667 15.7836475,12.8843333 L15.7836475,14.3843333 Z" id="Fill-1" fill="#10C5BF" mask="url(#mask-2)"></path>
                </g>
                <g id="Group-6" transform="translate(12.000000, 0.000000)">
                    <mask id="mask-4" fill="white">
                        <use xlink:href="#path-3"></use>
                    </mask>
                    <g id="Clip-5"></g>
                    <path d="M6.72333645,73.6763607 C5.77931776,73.675412 4.83473832,73.6962838 3.891,73.6716171 C0.874738318,73.593506 -0.780869159,70.7549419 0.377074766,67.5890701 C3.79062617,58.2555829 7.22800935,48.9334803 10.6538972,39.6056855 C15.1906262,27.2543265 19.7248318,14.9013863 24.2601589,2.54939487 C24.9964206,0.544121368 27.3364206,-0.368861538 29.033243,0.687061538 C29.8979159,1.22530085 30.149972,2.14650598 29.799785,3.59266838 C28.915486,7.24554872 28.0258598,10.8965316 27.1314673,14.5462496 C22.6051121,33.0225316 18.0767944,51.4984974 13.5484766,69.974147 C12.8881963,72.668506 11.7327757,73.6611812 9.24109346,73.6763607 C8.40165421,73.6814205 7.56249533,73.6773094 6.72333645,73.6763607" id="Fill-4" fill="#10C5BF" mask="url(#mask-4)"></path>
                </g>
                <path d="M89.1740284,73.9958915 C88.2980795,73.9958915 87.4221306,74.0062901 86.5461817,73.9940009 C84.2779291,73.9615448 83.0564327,72.9084551 82.447932,70.4433683 C81.0081506,64.6107264 79.5762354,58.7755637 78.14123,52.9413463 C74.1629386,36.7643518 70.1835235,20.5873572 66.2074796,4.40941738 C65.6104971,1.98088303 66.277151,1.01003648 68.5279857,1 C70.8150608,0.991130023 70.9201297,1.06801628 71.7935502,3.43195358 C79.6672577,24.7414209 87.5381559,46.0524637 95.4200105,67.3581497 C95.8883257,68.6245672 96.2482008,69.8875185 95.7838186,71.2368093 C95.2132438,72.8942753 94.127438,73.859765 92.5362338,73.9599692 C91.4189635,74.0305533 90.2949508,73.9735189 89.1740284,73.9735189 C89.1740284,73.9810815 89.1740284,73.9883289 89.1740284,73.9958915" id="Fill-7" fill="#10C5BF"></path>
                <path d="M76,61 L32,61 C32.7317826,57.9013863 33.4373004,54.9045317 34.148127,51.9089776 C34.5376287,50.2681525 34.9989395,48.6461838 35.3062938,46.985202 C35.4798092,46.0475877 35.9237965,46.0056487 36.5686816,46.0069491 C43.9532872,46.0225543 51.3376134,46.0170275 58.7219396,46.0170275 C62.9715316,46.0170275 67.2211236,46.0339331 71.4704362,46 C72.1672922,45.994595 72.4995142,46.1747053 72.6962209,47.0394952 C73.7465343,51.6557177 74.8678186,56.2498327 76,61" id="Fill-9" fill="#10C5BF"></path>
                <path d="M67.479337,25 C68.2569884,28.0271392 69.0298411,31.030772 69.7987421,34.035626 C69.8715676,34.3204506 69.9201178,34.6129072 70,35 L38,35 C38.8518881,31.6394969 39.6910741,28.3302806 40.5356232,25 L67.479337,25 Z" id="Fill-11" fill="#10C5BF"></path>
                <path d="M65,17 L42,17 C42.6516196,14.4491876 43.2615492,11.9581004 43.9574286,9.49474278 C44.0279588,9.24487226 44.6150446,9.02425487 44.9636982,9.02212183 C50.0141781,8.99195453 55.0646579,9.00140086 60.1151377,9.00140086 C62.9680435,9.00140086 62.970899,9.0004867 63.7107527,11.8904526 C64.1405018,13.5697653 64.5594001,15.2521252 65,17" id="Fill-13" fill="#10C5BF"></path>
                <g id="Group-17" transform="translate(0.000000, 45.000000)">
                    <mask id="mask-6" fill="white">
                        <use xlink:href="#path-5"></use>
                    </mask>
                    <g id="Clip-16"></g>
                    <path d="M15.8932138,0.339133333 C15.6639724,1.01813333 15.486869,1.54713333 15.306731,2.07446667 C13.8518345,6.3338 12.382869,10.5861333 10.954731,14.8588 C10.7252138,15.5451333 10.4363862,15.8004667 9.82314483,15.7911333 C7.28135172,15.7524667 4.73845517,15.8004667 2.19666207,15.7654667 C0.180386207,15.7378 -0.558648276,14.1238 0.445765517,11.9874667 C2.0248,8.62946667 3.63638621,5.2938 5.19969655,1.92513333 C5.70507586,0.8358 6.36190345,0.2998 7.42838621,0.3208 C10.2032828,0.375466667 12.9795586,0.339133333 15.8932138,0.339133333" id="Fill-15" fill="#10C5BF" mask="url(#mask-6)"></path>
                </g>
                <path d="M84,25.0264132 C86.1805028,25.0264132 88.116077,24.9402037 90.0377821,25.0792803 C90.6125184,25.120733 91.3414793,25.6563131 91.6674036,26.2003039 C92.7564068,28.0170108 93.7197557,29.9256345 94.6836595,31.8273493 C95.4683742,33.3758157 94.7352526,34.8714148 93.1242158,34.953419 C91.5392529,35.034522 89.9479102,34.9906663 88.3601735,34.9636319 C88.1293914,34.959727 87.7668526,34.8056313 87.6925142,34.6157902 C86.4662067,31.4981313 85.2767911,28.3633506 84,25.0264132" id="Fill-18" fill="#10C5BF"></path>
                <path d="M24,25.0216858 C22.7452323,28.2980341 21.5779871,31.3820285 20.3651747,34.4446167 C20.2654267,34.6963652 19.8589331,34.9454002 19.5888635,34.9535406 C18.0342964,35 16.4755615,35.0280099 14.9221057,34.9565555 C13.2527867,34.8796743 12.5162081,33.3688818 13.3366972,31.761008 C14.2913876,29.8893258 15.2469116,28.0143272 16.29746,26.2062605 C16.5953145,25.6937186 17.2099173,25.106406 17.7069898,25.0750505 C19.7297332,24.946915 21.7630348,25.0216858 24,25.0216858" id="Fill-20" fill="#10C5BF"></path>
                <path d="M78,9.03629173 C79.245951,9.03629173 80.3283614,8.92983868 81.384149,9.08157175 C81.9064646,9.15683855 82.5426248,9.57095587 82.8430831,10.0711352 C83.5710288,11.2829007 84.1640852,12.615213 84.7520707,13.9361303 C85.4133324,15.4210752 84.6932468,16.8535433 83.2870514,16.9441034 C80.8364782,17.1021337 80.8369853,17.1021337 79.9034095,14.4456055 C79.2882941,12.6949778 78.6716573,10.9449498 78,9.03629173" id="Fill-22" fill="#10C5BF"></path>
                <path d="M29,9.02964385 C28.0970713,11.6482029 27.2592163,14.0888459 26.4089543,16.5231022 C26.343121,16.7116628 26.1884128,17.0002822 26.0780155,16.9984574 C25.0484843,16.9796013 23.9875558,17.0750981 23.0000567,16.8013812 C22.0938364,16.5501698 21.74492,15.2381531 22.1976504,14.1858634 C22.818762,12.7427667 23.4768415,11.3124434 24.233671,9.97001373 C24.49194,9.51168986 25.0781093,9.12726957 25.5447659,9.07130966 C26.6330406,8.94053377 27.7392928,9.02964385 29,9.02964385" id="Fill-24" fill="#10C5BF"></path>
            </g>
        </g>
    </g>
</svg>