<svg width="108" height="74" viewBox="0 0 108 74" xmlns="http://www.w3.org/2000/svg" xmlns:xlink="http://www.w3.org/1999/xlink">
    <defs>
        <path id="a" d="M.135.298h15.649v15.497H.135z"/>
        <path id="c" d="M.006.244h29.946v73.44H.006z"/>
        <path id="e" d="M0 .32h15.893v15.471H0z"/>
    </defs>
    <g fill="none" fill-rule="evenodd">
        <g transform="translate(92 45)">
            <mask id="b" fill="#fff">
                <use xlink:href="#a"/>
            </mask>
            <path d="M15.784 14.384c-.607 1.098-1.457 1.434-2.514 1.41-2.398-.058-4.798.004-7.196-.047-.324-.007-.826-.29-.936-.607C3.463 10.292 1.84 5.417.135.339h1.59C3.822.339 5.92.435 8.01.306c1.42-.088 2.228.606 2.89 2.098 1.568 3.534 3.25 6.992 4.885 10.48v1.5z" fill="#FFF" mask="url(#b)"/>
        </g>
        <g transform="translate(12)">
            <mask id="d" fill="#fff">
                <use xlink:href="#c"/>
            </mask>
            <path d="M6.723 73.676c-.944 0-1.888.02-2.832-.004-3.016-.078-4.672-2.917-3.514-6.083 3.414-9.333 6.851-18.656 10.277-27.983C15.19 27.254 19.724 14.9 24.26 2.549 24.996.544 27.336-.369 29.033.687c.865.538 1.117 1.46.767 2.906-.885 3.653-1.774 7.304-2.669 10.953-4.526 18.477-9.054 36.952-13.583 55.428-.66 2.695-1.815 3.687-4.307 3.702-.84.005-1.679.001-2.518 0" fill="#FFF" mask="url(#d)"/>
        </g>
        <path d="M89.174 73.996c-.876 0-1.752.01-2.628-.002-2.268-.032-3.49-1.086-4.098-3.55-1.44-5.833-2.872-11.668-4.307-17.503-3.978-16.177-7.957-32.354-11.934-48.532-.597-2.428.07-3.399 2.321-3.409 2.287-.009 2.392.068 3.266 2.432 7.873 21.31 15.744 42.62 23.626 63.926.468 1.267.828 2.53.364 3.879-.57 1.657-1.657 2.623-3.248 2.723-1.117.07-2.241.014-3.362.014v.022M76 61H32c.732-3.099 1.437-6.095 2.148-9.091.39-1.64.85-3.263 1.158-4.924.174-.937.618-.98 1.263-.978 7.384.016 14.769.01 22.153.01 4.25 0 8.5.017 12.748-.017.697-.005 1.03.175 1.226 1.04C73.746 51.655 74.868 56.25 76 61M67.48 25c.777 3.027 1.55 6.03 2.319 9.036.073.284.121.577.201.964H38l2.536-10h26.943zM65 17H42c.652-2.55 1.262-5.042 1.957-7.505.071-.25.658-.47 1.007-.473 5.05-.03 10.1-.02 15.151-.02 2.853 0 2.856-.002 3.596 2.888.43 1.68.848 3.362 1.289 5.11" fill="#FFF"/>
        <g transform="translate(0 45)">
            <mask id="f" fill="#fff">
                <use xlink:href="#e"/>
            </mask>
            <path d="M15.893.34c-.229.678-.406 1.207-.586 1.734-1.455 4.26-2.924 8.512-4.352 12.785-.23.686-.519.941-1.132.932-2.542-.039-5.085.01-7.626-.026C.18 15.738-.56 14.124.446 11.987 2.025 8.63 3.636 5.294 5.2 1.925 5.705.835 6.362.3 7.428.321c2.775.054 5.552.018 8.465.018" fill="#FFF" mask="url(#f)"/>
        </g>
        <path d="M84 25.026c2.18 0 4.116-.086 6.038.053.575.042 1.303.577 1.63 1.121 1.088 1.817 2.052 3.726 3.016 5.627.784 1.549.051 3.044-1.56 3.126-1.585.082-3.176.038-4.764.01-.23-.003-.593-.157-.667-.347-1.227-3.118-2.416-6.253-3.693-9.59M24 25.022c-1.255 3.276-2.422 6.36-3.635 9.423-.1.251-.506.5-.776.509-1.555.046-3.113.074-4.667.003-1.67-.077-2.406-1.588-1.585-3.196.954-1.872 1.91-3.747 2.96-5.555.298-.512.913-1.1 1.41-1.13 2.023-.13 4.056-.054 6.293-.054M78 9.036c1.246 0 2.328-.106 3.384.046.522.075 1.159.489 1.46.99.727 1.21 1.32 2.543 1.908 3.864.661 1.485-.059 2.918-1.465 3.008-2.45.158-2.45.158-3.384-2.498L78 9.036M29 9.03c-.903 2.618-1.74 5.059-2.591 7.493-.066.189-.22.477-.331.475-1.03-.018-2.09.077-3.078-.197-.906-.25-1.255-1.563-.802-2.615.62-1.443 1.279-2.874 2.036-4.216.258-.458.844-.843 1.31-.899 1.089-.13 2.195-.041 3.456-.041" fill="#FFF"/>
    </g>
</svg>
