<?xml version="1.0" encoding="utf-8"?>
<!-- Generator: Adobe Illustrator 26.0.1, SVG Export Plug-In . SVG Version: 6.00 Build 0)  -->
<svg version="1.1" id="圖層_1" xmlns="http://www.w3.org/2000/svg" xmlns:xlink="http://www.w3.org/1999/xlink" x="0px" y="0px"
	 viewBox="0 0 31 21" style="enable-background:new 0 0 31 21;" xml:space="preserve">
<style type="text/css">
	.st0{opacity:0.8;}
	.st1{filter:url(#Adobe_OpacityMaskFilter);}
	.st2{fill-rule:evenodd;clip-rule:evenodd;fill:#FFFFFF;}
	.st3{mask:url(#mask-2_00000125589729894237505980000004287543074455727023_);fill-rule:evenodd;clip-rule:evenodd;fill:#FFFFFF;}
	.st4{filter:url(#Adobe_OpacityMaskFilter_00000105390294138634714270000008594971222188782518_);}
	.st5{mask:url(#mask-4_00000083069085689847063230000000698542100041296265_);fill-rule:evenodd;clip-rule:evenodd;fill:#FFFFFF;}
	.st6{filter:url(#Adobe_OpacityMaskFilter_00000047057737698143808650000013865062346216592030_);}
	.st7{mask:url(#mask-6_00000127045672842892259010000009890566400712055730_);fill-rule:evenodd;clip-rule:evenodd;fill:#FFFFFF;}
	.st8{fill-rule:evenodd;clip-rule:evenodd;fill:#FFFFFF;fill-opacity:0;}
</style>
<g id="Page-2">
	<g id="sidebar" transform="translate(-411.000000, -696.000000)">
		<g id="Rectangle" transform="translate(411.000000, 696.000000)" class="st0">
			<g id="Mask">
				<g id="Group-3" transform="translate(25.263158, 12.631579)">
					<g id="Clip-2">
					</g>
					<defs>
						<filter id="Adobe_OpacityMaskFilter" filterUnits="userSpaceOnUse" x="0" y="0.1" width="4.6" height="4.6">
							<feColorMatrix  type="matrix" values="1 0 0 0 0  0 1 0 0 0  0 0 1 0 0  0 0 0 1 0"/>
						</filter>
					</defs>
					
						<mask maskUnits="userSpaceOnUse" x="0" y="0.1" width="4.6" height="4.6" id="mask-2_00000125589729894237505980000004287543074455727023_">
						<g class="st1">
							<polygon id="path-1_00000174600526031331956390000006210047442960756099_" class="st2" points="0,0.1 4.7,0.1 4.7,4.7 0,4.7 
															"/>
						</g>
					</mask>
					<path id="Fill-1" class="st3" d="M4.7,4.3C4.5,4.6,4.2,4.7,3.9,4.7c-0.7,0-1.4,0-2.1,0c-0.1,0-0.2-0.1-0.3-0.2
						C1,3,0.5,1.6,0,0.1c0.2,0,0.3,0,0.5,0c0.6,0,1.2,0,1.9,0c0.4,0,0.7,0.2,0.9,0.6c0.5,1,1,2.1,1.4,3.1V4.3z"/>
				</g>
				<g id="Group-6" transform="translate(3.157895, 0.000000)">
					<g id="Clip-5">
					</g>
					<defs>
						
							<filter id="Adobe_OpacityMaskFilter_00000177475000469268891860000005585448344507721091_" filterUnits="userSpaceOnUse" x="0" y="0.1" width="8.7" height="20.4">
							<feColorMatrix  type="matrix" values="1 0 0 0 0  0 1 0 0 0  0 0 1 0 0  0 0 0 1 0"/>
						</filter>
					</defs>
					
						<mask maskUnits="userSpaceOnUse" x="0" y="0.1" width="8.7" height="20.4" id="mask-4_00000083069085689847063230000000698542100041296265_">
						<g style="filter:url(#Adobe_OpacityMaskFilter_00000177475000469268891860000005585448344507721091_);">
							<polygon id="path-3_00000078744521108608680730000010838482512992942988_" class="st2" points="0,0.1 8.7,0.1 8.7,20.4 
								0,20.4 							"/>
						</g>
					</mask>
					<path id="Fill-4" class="st5" d="M1.9,20.4c-0.3,0-0.5,0-0.8,0c-0.9,0-1.4-0.8-1-1.7c1-2.6,2-5.2,3-7.8C4.4,7.6,5.7,4.1,7,0.7
						c0.2-0.6,0.9-0.8,1.4-0.5C8.7,0.3,8.7,0.6,8.6,1C8.4,2,8.1,3,7.9,4C6.5,9.2,5.2,14.3,3.9,19.4c-0.2,0.7-0.5,1-1.2,1
						C2.4,20.4,2.2,20.4,1.9,20.4"/>
				</g>
				<path id="Fill-7" class="st2" d="M24.9,20.5c-0.3,0-0.5,0-0.8,0c-0.7,0-1-0.3-1.2-1c-0.4-1.6-0.8-3.3-1.2-4.9
					c-1.2-4.5-2.3-9.1-3.5-13.6c-0.2-0.7,0-1,0.7-1c0.7,0,0.7,0,0.9,0.7c2.3,6,4.6,12,6.8,18c0.1,0.4,0.2,0.7,0.1,1.1
					c-0.2,0.5-0.5,0.7-0.9,0.8C25.5,20.5,25.2,20.5,24.9,20.5C24.9,20.5,24.9,20.5,24.9,20.5"/>
				<path id="Fill-9" class="st2" d="M20.5,16.6H8.7c0.2-0.8,0.4-1.6,0.6-2.4c0.1-0.4,0.2-0.9,0.3-1.3c0-0.2,0.2-0.3,0.3-0.3
					c2,0,4,0,6,0c1.1,0,2.3,0,3.4,0c0.2,0,0.3,0,0.3,0.3C19.9,14.1,20.2,15.3,20.5,16.6"/>
				<path id="Fill-11" class="st2" d="M18.3,7.1c0.2,1,0.4,1.9,0.6,2.9c0,0.1,0,0.2,0.1,0.3h-8.7c0.2-1.1,0.5-2.1,0.7-3.2H18.3z"/>
				<path id="Fill-13" class="st2" d="M18.2,4.7h-6.3C12,4,12.2,3.2,12.4,2.5c0-0.1,0.2-0.1,0.3-0.1c1.4,0,2.8,0,4.2,0
					c0.8,0,0.8,0,1,0.9C17.9,3.7,18,4.2,18.2,4.7"/>
				<g id="Group-17" transform="translate(0.000000, 12.631579)">
					<g id="Clip-16">
					</g>
					<defs>
						
							<filter id="Adobe_OpacityMaskFilter_00000128458095302731997470000015015245110436025985_" filterUnits="userSpaceOnUse" x="0" y="0.1" width="4.7" height="4.6">
							<feColorMatrix  type="matrix" values="1 0 0 0 0  0 1 0 0 0  0 0 1 0 0  0 0 0 1 0"/>
						</filter>
					</defs>
					
						<mask maskUnits="userSpaceOnUse" x="0" y="0.1" width="4.7" height="4.6" id="mask-6_00000127045672842892259010000009890566400712055730_">
						<g style="filter:url(#Adobe_OpacityMaskFilter_00000128458095302731997470000015015245110436025985_);">
							<polygon id="path-5_00000079483763016900859280000006391340212192016518_" class="st2" points="0,0.1 4.7,0.1 4.7,4.7 0,4.7 
															"/>
						</g>
					</mask>
					<path id="Fill-15" class="st7" d="M4.7,0.1C4.6,0.3,4.6,0.5,4.5,0.6C4.1,1.9,3.7,3.1,3.2,4.4C3.2,4.6,3.1,4.7,2.9,4.7
						c-0.8,0-1.5,0-2.3,0c-0.6,0-0.8-0.5-0.5-1.1c0.5-1,0.9-2,1.4-3c0.1-0.3,0.3-0.5,0.7-0.5C3,0.1,3.8,0.1,4.7,0.1"/>
				</g>
				<path id="Fill-18" class="st2" d="M22.9,7.1c0.6,0,1.2,0,1.7,0c0.2,0,0.4,0.2,0.5,0.4c0.3,0.6,0.6,1.2,0.9,1.8
					c0.2,0.5,0,1-0.4,1c-0.5,0-0.9,0-1.4,0c-0.1,0-0.2,0-0.2-0.1C23.6,9.2,23.3,8.2,22.9,7.1"/>
				<path id="Fill-20" class="st2" d="M7.1,7.1c-0.4,1-0.7,2-1,3c0,0.1-0.1,0.2-0.2,0.2c-0.4,0-0.9,0-1.3,0c-0.5,0-0.7-0.5-0.5-1
					c0.3-0.6,0.5-1.2,0.8-1.8C5,7.3,5.2,7.1,5.3,7.1C5.9,7.1,6.5,7.1,7.1,7.1"/>
				<path id="Fill-22" class="st2" d="M22.1,2.4c0.3,0,0.5,0,0.8,0c0.1,0,0.3,0.1,0.3,0.3c0.2,0.4,0.3,0.8,0.4,1.1
					c0.1,0.4,0,0.9-0.3,0.9c-0.6,0-0.6,0-0.8-0.7C22.4,3.5,22.3,2.9,22.1,2.4"/>
				<path id="Fill-24" class="st2" d="M7.9,2.4C7.7,3.2,7.5,3.9,7.3,4.6c0,0.1,0,0.1-0.1,0.1c-0.2,0-0.5,0-0.7-0.1
					C6.3,4.6,6.3,4.2,6.4,3.9c0.1-0.4,0.3-0.9,0.5-1.2C6.9,2.5,7,2.4,7.1,2.4C7.4,2.4,7.6,2.4,7.9,2.4"/>
			</g>
			<rect y="-1.6" class="st8" width="30" height="23.7"/>
		</g>
	</g>
</g>
</svg>
