<?xml version="1.0" encoding="UTF-8"?>
<svg width="38px" height="26px" viewBox="0 0 38 26" version="1.1" xmlns="http://www.w3.org/2000/svg" xmlns:xlink="http://www.w3.org/1999/xlink">
    <title>track-sidebar</title>
    <defs>
        <polygon id="path-1" points="0.0507661017 0.111843138 5.91884746 0.111843138 5.91884746 5.92298044 0.0507661017 5.92298044"></polygon>
        <polygon id="path-3" points="0.00214892833 0.0856666667 10.9824912 0.0856666667 10.9824912 25.8888703 0.00214892833 25.8888703"></polygon>
        <polygon id="path-5" points="0 0.120077313 5.95995517 0.120077313 5.95995517 5.92176723 0 5.92176723"></polygon>
    </defs>
    <g id="Page-2" stroke="none" stroke-width="1" fill="none" fill-rule="evenodd">
        <g id="Artboard" transform="translate(-577.000000, -581.000000)">
            <g id="track-sidebar" transform="translate(577.000000, 581.000000)">
                <g id="Group-3" transform="translate(32.000000, 16.000000)">
                    <mask id="mask-2" fill="white">
                        <use xlink:href="#path-1"></use>
                    </mask>
                    <g id="Clip-2"></g>
                    <path d="M5.9188678,5.394125 C5.69147797,5.80575 5.37266441,5.931875 4.97635932,5.9225 C4.07707119,5.901 3.17717288,5.924375 2.27778305,5.90525 C2.15625763,5.902625 1.96781695,5.796625 1.92663051,5.6775 C1.29866441,3.859375 0.690122034,2.03125 0.0507661017,0.127125 C0.281613559,0.127125 0.464461017,0.127125 0.64720678,0.127125 C1.4328,0.127125 2.21981695,0.163 3.00347797,0.114625 C3.53574915,0.081625 3.83890169,0.342125 4.08713898,0.901375 C4.67524068,2.226625 5.30554576,3.523375 5.9188678,4.831625 L5.9188678,5.394125 Z" id="Fill-1" fill="#757B8E" mask="url(#mask-2)"></path>
                </g>
                <g id="Group-6" transform="translate(4.000000, 0.000000)">
                    <mask id="mask-4" fill="white">
                        <use xlink:href="#path-3"></use>
                    </mask>
                    <g id="Clip-5"></g>
                    <path d="M2.46522336,25.8862889 C2.11908318,25.8859556 1.77273738,25.8932889 1.4267,25.8846222 C0.320737383,25.8571778 -0.286318692,24.8598444 0.138260748,23.7475111 C1.38989626,20.4681778 2.65027009,17.1928444 3.90642897,13.9155111 C5.56989626,9.57584444 7.23243832,5.23562222 8.89539159,0.895733333 C9.16535421,0.191177778 10.0233542,-0.1296 10.6455224,0.2414 C10.9625692,0.430511111 11.0549897,0.754177778 10.9265879,1.26228889 C10.6023449,2.54573333 10.2761486,3.82851111 9.94820467,5.11084444 C8.28854112,11.6025111 6.62815794,18.0940667 4.96777477,24.5855111 C4.72567196,25.5321778 4.30201776,25.8809556 3.38840093,25.8862889 C3.08060654,25.8880667 2.77291495,25.8866222 2.46522336,25.8862889" id="Fill-4" fill="#757B8E" mask="url(#mask-4)"></path>
                </g>
                <path d="M31.4971437,25.9985367 C31.1759625,25.9985367 30.8547812,26.0022403 30.5336,25.9978633 C29.7019073,25.9863036 29.2540253,25.6112306 29.0309084,24.7332545 C28.5029886,22.6558752 27.977953,20.577598 27.4517843,18.4996576 C25.9930775,12.7379883 24.5339586,6.97631901 23.0760759,1.21431304 C22.8571823,0.349355599 23.101622,0.00357463655 23.9269281,0 C24.7655223,-0.00315916993 24.8040476,0.0242249764 25.1243017,0.866175246 C28.0113278,8.45584853 30.8973238,16.046083 33.7873372,23.6344095 C33.9590527,24.0854623 34.0910069,24.5352806 33.9207335,25.0158499 C33.7115227,25.6061802 33.3133939,25.9500533 32.7299524,25.9857425 C32.3202866,26.010882 31.9081486,25.9905684 31.4971437,25.9905684 C31.4971437,25.9932619 31.4971437,25.9958432 31.4971437,25.9985367" id="Fill-7" fill="#757B8E"></path>
                <path d="M26,21 L11,21 C11.2494713,19.9671288 11.4899888,18.9681772 11.732316,17.9696592 C11.8651007,17.4227175 12.0223657,16.8820613 12.1271456,16.3284007 C12.1862986,16.0158626 12.3376579,16.0018829 12.5575051,16.0023164 C15.0749843,16.0075181 17.5923682,16.0056758 20.1097521,16.0056758 C21.5584767,16.0056758 23.0072012,16.011311 24.4558305,16 C24.6933951,15.9981983 24.8066526,16.0582351 24.8737117,16.3464984 C25.2317731,17.8852392 25.6140291,19.4166109 26,21" id="Fill-9" fill="#757B8E"></path>
                <path d="M23.1335221,9 C23.4008398,10.2108557 23.6665079,11.4123088 23.9308176,12.6142504 C23.9558514,12.7281802 23.9725405,12.8451629 24,13 L13,13 C13.2928365,11.6557988 13.5813067,10.3321122 13.8716205,9 L23.1335221,9 Z" id="Fill-11" fill="#757B8E"></path>
                <path d="M23,6 L15,6 C15.2266503,5.04344537 15.4387997,4.10928767 15.6808447,3.18552854 C15.705377,3.0918271 15.9095807,3.00909558 16.0308516,3.00829569 C17.7875402,2.99698295 19.5442288,3.00052532 21.3009175,3.00052532 C22.2932325,3.00052532 22.2942257,3.00018251 22.5515662,4.08391972 C22.7010441,4.71366199 22.8467479,5.34454696 23,6" id="Fill-13" fill="#757B8E"></path>
                <g id="Group-17" transform="translate(0.000000, 16.000000)">
                    <mask id="mask-6" fill="white">
                        <use xlink:href="#path-5"></use>
                    </mask>
                    <g id="Clip-16"></g>
                    <path d="M5.95995517,0.127175 C5.87398966,0.3818 5.80757586,0.580175 5.74002414,0.777925 C5.19443793,2.375175 4.64357586,3.9698 4.10802414,5.57205 C4.02195517,5.829425 3.91364483,5.925175 3.68367931,5.921675 C2.7305069,5.907175 1.77692069,5.925175 0.823748276,5.91205 C0.0676448276,5.901675 -0.209493103,5.296425 0.167162069,4.4953 C0.7593,3.23605 1.36364483,1.985175 1.94988621,0.721925 C2.13940345,0.313425 2.38571379,0.112425 2.78564483,0.1203 C3.82623103,0.1408 4.86733448,0.127175 5.95995517,0.127175" id="Fill-15" fill="#757B8E" mask="url(#mask-6)"></path>
                </g>
                <path d="M29,9.01056529 C29.7929101,9.01056529 30.4967553,8.9760815 31.1955571,9.03171214 C31.4045521,9.04829319 31.6696288,9.26252524 31.7881467,9.48012155 C32.1841479,10.2068043 32.5344566,10.9702538 32.8849671,11.7309397 C33.1703179,12.3503263 32.9037282,12.9485659 32.3178966,12.9813676 C31.7415465,13.0138088 31.1628764,12.9962665 30.5855176,12.9854528 C30.5015969,12.9838908 30.3697646,12.9222525 30.3427324,12.8463161 C29.8968024,11.5992525 29.4642877,10.3453402 29,9.01056529" id="Fill-18" fill="#757B8E"></path>
                <path d="M9,9.00867433 C8.54372083,10.3192137 8.11926804,11.5528114 7.67824533,12.7778467 C7.64197336,12.8785461 7.4941575,12.9781601 7.39595038,12.9814162 C6.83065323,13 6.26384053,13.011204 5.69894752,12.9826222 C5.09192245,12.9518697 4.82407566,12.3475527 5.12243536,11.7044032 C5.4695955,10.9557303 5.81705876,10.2057309 6.19907637,9.48250418 C6.3073871,9.27748745 6.53087903,9.04256239 6.71163266,9.03002019 C7.4471757,8.97876601 8.18655811,9.00867433 9,9.00867433" id="Fill-20" fill="#757B8E"></path>
                <path d="M28,3.0136094 C28.355986,3.0136094 28.6652461,2.97368951 28.9668997,3.03058941 C29.1161327,3.05881446 29.2978928,3.21410845 29.383738,3.40167571 C29.5917225,3.85608776 29.7611672,4.35570486 29.929163,4.85104885 C30.118095,5.40790321 29.9123562,5.94507875 29.5105861,5.97903877 C28.8104223,6.03830013 28.8105672,6.03830013 28.5438313,5.04210208 C28.368084,4.38561667 28.1919021,3.72935616 28,3.0136094" id="Fill-22" fill="#757B8E"></path>
                <path d="M10,3.01111645 C9.74202038,3.99307609 9.50263323,4.90831723 9.25970122,5.82116334 C9.24089171,5.89187356 9.19668937,6.00010581 9.16514728,5.99942152 C8.87099553,5.9923505 8.56787309,6.0281618 8.28573049,5.92551794 C8.02681039,5.83131368 7.92712001,5.33930741 8.05647154,4.94469878 C8.233932,4.40353751 8.42195472,3.86716628 8.63819171,3.36375515 C8.71198285,3.1918837 8.87945981,3.04772609 9.01279027,3.02674112 C9.32372589,2.97770016 9.63979795,3.01111645 10,3.01111645" id="Fill-24" fill="#757B8E"></path>
            </g>
        </g>
    </g>
</svg>