<?xml version="1.0" encoding="UTF-8"?>
<svg width="87px" height="66px" viewBox="0 0 87 66" version="1.1" xmlns="http://www.w3.org/2000/svg" xmlns:xlink="http://www.w3.org/1999/xlink">
    <title>tunnel-hover</title>
    <g id="Page-1" stroke="none" stroke-width="1" fill="none" fill-rule="evenodd">
        <g id="slope-icon" transform="translate(-373.000000, -438.000000)" fill="#10C5BF" fill-rule="nonzero">
            <g id="tunnel-hover" transform="translate(373.000000, 438.000000)">
                <path d="M53.4972253,24 L33.5027747,24 C32.3802523,24 31.351644,24.6266704 30.8368514,25.6241899 L12.2582359,61.6241899 C11.498397,63.0965387 12.0760003,64.9060843 13.5483491,65.6659232 C13.9737314,65.8854514 14.4454705,66 14.9241591,66 L72.0758409,66 C73.7326951,66 75.0758409,64.6568542 75.0758409,63 C75.0758409,62.5213114 74.9612923,62.0495723 74.7417641,61.6241899 L56.1631486,25.6241899 C55.648356,24.6266704 54.6197477,24 53.4972253,24 Z M46,64 L42,64 L42,57 L46,57 L46,64 L46,64 Z M46,49 L42,49 L42,42 L46,42 L46,49 L46,49 Z M46,35 L42,35 L42,28 L46,28 L46,35 L46,35 Z" id="Shape"></path>
                <path d="M87,2 L87,39 C87,40.1045695 86.1045695,41 85,41 L69.28854,41 L69.28854,41 C69.35118,40.1968913 69.40251,39.3928185 69.40251,38.5771763 C69.40251,22.5651366 57.68883,9.57849316 43.23378,9.57849316 C28.79004,9.57849316 17.07201,22.5651366 17.07201,38.5771763 C17.07201,39.3928185 17.12334,40.1968913 17.17989,41 L2,41 C0.8954305,41 1.3527075e-16,40.1045695 0,39 L0,2 C-1.3527075e-16,0.8954305 0.8954305,3.7556198e-15 2,3.55271368e-15 L85,3.55271368e-15 C86.1045695,3.34980755e-15 87,0.8954305 87,2 Z" id="Path"></path>
            </g>
        </g>
    </g>
</svg>