<?xml version="1.0" encoding="utf-8"?>
<!-- Generator: Adobe Illustrator 26.0.1, SVG Export Plug-In . SVG Version: 6.00 Build 0)  -->
<svg version="1.1" id="圖層_1" xmlns="http://www.w3.org/2000/svg" xmlns:xlink="http://www.w3.org/1999/xlink" x="0px" y="0px"
	 viewBox="0 0 32 24" style="enable-background:new 0 0 32 24;" xml:space="preserve">
<style type="text/css">
	.st0{opacity:0.8;}
	.st1{fill:#FFFFFF;}
</style>
<g id="Page-2">
	<g id="Artboard" transform="translate(-581.000000, -870.000000)" class="st0">
		<g id="tunnel-sidebar" transform="translate(581.000000, 870.000000)">
			<path id="Shape" class="st1" d="M19.3,9h-7.6c-0.4,0-0.7,0.2-0.9,0.5l-7,13c-0.3,0.5-0.1,1.1,0.4,1.4C4.3,24,4.5,24,4.7,24h21.6
				c0.6,0,1-0.4,1-1c0-0.2,0-0.3-0.1-0.5l-7-13C20,9.2,19.7,9,19.3,9z M16.4,23.3h-1.5v-2.5h1.5V23.3L16.4,23.3z M16.4,17.9h-1.5
				v-2.5h1.5V17.9L16.4,17.9z M16.4,12.9h-1.5v-2.5h1.5V12.9L16.4,12.9z"/>
			<path id="Path" class="st1" d="M32,1v13c0,0.6-0.4,1-1,1h-5.5l0,0c0-0.3,0-0.6,0-0.9c0-5.9-4.3-10.6-9.6-10.6
				c-5.3,0-9.6,4.8-9.6,10.6c0,0.3,0,0.6,0,0.9H1c-0.6,0-1-0.4-1-1V1c0-0.6,0.4-1,1-1h30C31.6,0,32,0.4,32,1z"/>
		</g>
	</g>
</g>
</svg>
