<svg width="87" height="66" viewBox="0 0 87 66" xmlns="http://www.w3.org/2000/svg">
    <g fill="#FFF" fill-rule="nonzero">
        <path d="M53.497 24H33.503a3 3 0 0 0-2.666 1.624l-18.579 36A3 3 0 0 0 14.924 66h57.152a3 3 0 0 0 2.666-4.376l-18.579-36A3 3 0 0 0 53.497 24zM46 64h-4v-7h4v7zm0-15h-4v-7h4v7zm0-14h-4v-7h4v7z"/>
        <path d="M87 2v37a2 2 0 0 1-2 2H69.289a31.06 31.06 0 0 0 .114-2.423c0-16.012-11.714-28.999-26.17-28.999-14.443 0-26.161 12.987-26.161 29 0 .815.051 1.619.108 2.422H2a2 2 0 0 1-2-2V2a2 2 0 0 1 2-2h83a2 2 0 0 1 2 2z"/>
    </g>
</svg>
