<?xml version="1.0" encoding="UTF-8"?>
<svg width="32px" height="24px" viewBox="0 0 32 24" version="1.1" xmlns="http://www.w3.org/2000/svg" xmlns:xlink="http://www.w3.org/1999/xlink">
    <title>tunnel-sidebar</title>
    <g id="Page-2" stroke="none" stroke-width="1" fill="none" fill-rule="evenodd">
        <g id="Artboard" transform="translate(-581.000000, -870.000000)" fill="#757B8E" fill-rule="nonzero">
            <g id="tunnel-sidebar" transform="translate(581.000000, 870.000000)">
                <path d="M19.315378,9 L11.684622,9 C11.3169394,9 10.9789137,9.20177298 10.8044151,9.52540974 L3.79507014,22.5254097 C3.53296118,23.0115346 3.71456191,23.6180979 4.20068672,23.8802068 C4.34651737,23.9588359 4.50959928,24 4.67527698,24 L26.324723,24 C26.8770078,24 27.324723,23.5522847 27.324723,23 C27.324723,22.8343223 27.2835589,22.6712404 27.2049299,22.5254097 L20.1955849,9.52540974 C20.0210863,9.20177298 19.6830606,9 19.315378,9 Z M16.4328358,23.2857143 L14.9402985,23.2857143 L14.9402985,20.7857143 L16.4328358,20.7857143 L16.4328358,23.2857143 L16.4328358,23.2857143 Z M16.4328358,17.9285714 L14.9402985,17.9285714 L14.9402985,15.4285714 L16.4328358,15.4285714 L16.4328358,17.9285714 L16.4328358,17.9285714 Z M16.4328358,12.9285714 L14.9402985,12.9285714 L14.9402985,10.4285714 L16.4328358,10.4285714 L16.4328358,12.9285714 L16.4328358,12.9285714 Z" id="Shape"></path>
                <path d="M32,1 L32,14 C32,14.5522847 31.5522847,15 31,15 L25.48544,15 L25.48544,15 C25.50848,14.7061797 25.52736,14.4120068 25.52736,14.1136011 C25.52736,8.25553779 21.21888,3.50432676 15.90208,3.50432676 C10.58944,3.50432676 6.27936,8.25553779 6.27936,14.1136011 C6.27936,14.4120068 6.29824,14.7061797 6.31904,15 L1,15 C0.44771525,15 6.76353751e-17,14.5522847 0,14 L0,1 C-6.76353751e-17,0.44771525 0.44771525,1.01453063e-16 1,0 L31,0 C31.5522847,-1.01453063e-16 32,0.44771525 32,1 Z" id="Path"></path>
            </g>
        </g>
    </g>
</svg>